<svg width="202" height="45" viewBox="0 0 202 45" fill="none" xmlns="http://www.w3.org/2000/svg">
<path d="M56.52 12.15V14.94H47.67V21.09H54.57V23.88H47.67V33H44.25V12.15H56.52ZM69.2595 22.59L75.7395 33H71.8995L67.1895 25.44L62.7795 33H58.9695L65.4495 22.59L58.9395 12.15H62.7795L67.5195 19.77L71.9595 12.15H75.7695L69.2595 22.59ZM78.3541 22.53C78.3541 20.49 78.8241 18.66 79.7641 17.04C80.7241 15.42 82.0141 14.16 83.6341 13.26C85.2741 12.34 87.0641 11.88 89.0041 11.88C91.2241 11.88 93.1941 12.43 94.9141 13.53C96.6541 14.61 97.9141 16.15 98.6941 18.15H94.5841C94.0441 17.05 93.2941 16.23 92.3341 15.69C91.3741 15.15 90.2641 14.88 89.0041 14.88C87.6241 14.88 86.3941 15.19 85.3141 15.81C84.2341 16.43 83.3841 17.32 82.7641 18.48C82.1641 19.64 81.8641 20.99 81.8641 22.53C81.8641 24.07 82.1641 25.42 82.7641 26.58C83.3841 27.74 84.2341 28.64 85.3141 29.28C86.3941 29.9 87.6241 30.21 89.0041 30.21C90.2641 30.21 91.3741 29.94 92.3341 29.4C93.2941 28.86 94.0441 28.04 94.5841 26.94H98.6941C97.9141 28.94 96.6541 30.48 94.9141 31.56C93.1941 32.64 91.2241 33.18 89.0041 33.18C87.0441 33.18 85.2541 32.73 83.6341 31.83C82.0141 30.91 80.7241 29.64 79.7641 28.02C78.8241 26.4 78.3541 24.57 78.3541 22.53ZM106.117 12.15V33H102.697V12.15H106.117ZM127.737 33H124.317L114.027 17.43V33H110.607V12.12H114.027L124.317 27.66V12.12H127.737V33ZM150.199 12.15L142.369 33H138.409L130.549 12.15H134.209L140.389 29.49L146.599 12.15H150.199ZM156.479 14.91V21.03H163.679V23.82H156.479V30.21H164.579V33H153.059V12.12H164.579V14.91H156.479ZM175.661 33.21C174.261 33.21 173.001 32.97 171.881 32.49C170.761 31.99 169.881 31.29 169.241 30.39C168.601 29.49 168.281 28.44 168.281 27.24H171.941C172.021 28.14 172.371 28.88 172.991 29.46C173.631 30.04 174.521 30.33 175.661 30.33C176.841 30.33 177.761 30.05 178.421 29.49C179.081 28.91 179.411 28.17 179.411 27.27C179.411 26.57 179.201 26 178.781 25.56C178.381 25.12 177.871 24.78 177.251 24.54C176.651 24.3 175.811 24.04 174.731 23.76C173.371 23.4 172.261 23.04 171.401 22.68C170.561 22.3 169.841 21.72 169.241 20.94C168.641 20.16 168.341 19.12 168.341 17.82C168.341 16.62 168.641 15.57 169.241 14.67C169.841 13.77 170.681 13.08 171.761 12.6C172.841 12.12 174.091 11.88 175.511 11.88C177.531 11.88 179.181 12.39 180.461 13.41C181.761 14.41 182.481 15.79 182.621 17.55H178.841C178.781 16.79 178.421 16.14 177.761 15.6C177.101 15.06 176.231 14.79 175.151 14.79C174.171 14.79 173.371 15.04 172.751 15.54C172.131 16.04 171.821 16.76 171.821 17.7C171.821 18.34 172.011 18.87 172.391 19.29C172.791 19.69 173.291 20.01 173.891 20.25C174.491 20.49 175.311 20.75 176.351 21.03C177.731 21.41 178.851 21.79 179.711 22.17C180.591 22.55 181.331 23.14 181.931 23.94C182.551 24.72 182.861 25.77 182.861 27.09C182.861 28.15 182.571 29.15 181.991 30.09C181.431 31.03 180.601 31.79 179.501 32.37C178.421 32.93 177.141 33.21 175.661 33.21ZM200.366 12.15V14.94H194.816V33H191.396V14.94H185.816V12.15H200.366Z" fill="white"/>
<rect x="0.894043" y="18.9866" width="29.5033" height="19.6689" fill="#FFAD00"/>
<path d="M15.6456 29.7152C8.41243 29.7152 0.999982 18.9867 0.999982 18.9867L30.5 18.9867C30.5 18.9867 22.8788 29.7152 15.6456 29.7152Z" fill="black"/>
<rect x="0.999969" y="4" width="8.04636" height="8.04636" fill="#FFAD00"/>
<rect x="22" y="4" width="8.04636" height="8.04636" fill="#FFAD00"/>
</svg>
