<svg width="40" height="40" viewBox="0 0 40 40" fill="none" xmlns="http://www.w3.org/2000/svg">
<path d="M39.505 19.0424L35.2251 16.0251C34.4496 15.4784 33.3778 16.0351 33.3778 16.9829V18.8284H12.8278C12.1806 18.8284 11.6559 19.3531 11.6559 20.0003C11.6559 20.6476 12.1806 21.1722 12.8278 21.1722H33.3777V23.0176C33.3777 23.9716 34.4552 24.5179 35.2249 23.9754L39.5048 20.9581C40.1584 20.4976 40.1716 19.5134 39.505 19.0424Z" fill="#1D177B"/>
<path d="M33.6306 27.5245C33.0705 27.2006 32.3534 27.3918 32.0293 27.9522C29.2765 32.7112 24.1306 35.9061 18.2502 35.9061C9.47945 35.9061 2.34383 28.7705 2.34383 19.9997C2.34383 11.229 9.47945 4.09334 18.2502 4.09334C24.1345 4.09334 29.278 7.29123 32.0292 12.0472C32.3533 12.6075 33.0705 12.7986 33.6305 12.4748C34.1907 12.1508 34.3821 11.4338 34.0581 10.8736C30.892 5.40029 24.9788 1.74951 18.2502 1.74951C8.16328 1.74951 0 9.91193 0 19.9997C0 30.0867 8.16242 38.25 18.2502 38.25C24.9817 38.25 30.8934 34.5966 34.0582 29.1258C34.3822 28.5655 34.1908 27.8486 33.6306 27.5245Z" fill="#1D177B"/>
</svg>
