<svg width="83" height="75" viewBox="0 0 83 75" fill="none" xmlns="http://www.w3.org/2000/svg">
<path d="M60.8667 30.583C55.3518 30.5873 50.0392 32.6606 45.9792 36.393C43.8725 34.5765 40.8817 34.2011 38.3914 35.4405C35.9011 36.6799 34.3973 39.2922 34.5762 42.0682C34.7551 44.8441 36.5818 47.2419 39.2106 48.1513C37.2776 57.3222 41.3302 66.7163 49.3278 71.603C57.3253 76.4897 67.5337 75.8095 74.8121 69.9049C82.0906 64.0003 84.8611 54.1515 81.7284 45.3183C78.5957 36.485 70.239 30.5824 60.8667 30.583ZM37.35 41.6497C37.3425 40.0648 38.2424 38.6153 39.6663 37.9192C41.0901 37.223 42.7867 37.4029 44.0329 38.3822C42.2483 40.4771 40.8704 42.8866 39.97 45.487C38.3903 44.8688 37.3506 43.346 37.35 41.6497ZM60.8667 72.083C50.1708 72.083 41.5 63.4123 41.5 52.7163C41.5 42.0204 50.1708 33.3497 60.8667 33.3497C71.5626 33.3497 80.2334 42.0204 80.2334 52.7163C80.2219 63.4075 71.5579 72.0716 60.8667 72.083Z" fill="#1D177B"/>
<path d="M73.603 31.2859C74.1746 31.7921 75.0482 31.7395 75.5549 31.1683C81.5763 24.3464 81.8015 14.1768 76.0881 7.09491C70.3746 0.0130355 60.3874 -1.91746 52.4463 2.52505C52.0071 2.76195 51.7295 3.21706 51.7199 3.71602C51.7103 4.21498 51.9703 4.68042 52.4001 4.93401C52.8299 5.18759 53.363 5.19002 53.7951 4.94035C60.5598 1.14286 69.0775 2.78206 73.9497 8.81901C78.8218 14.856 78.6256 23.5278 73.4855 29.3382C72.9821 29.9092 73.0346 30.7796 73.603 31.2859Z" fill="#1D177B"/>
<path d="M66.4 46.4917C66.4 47.2557 67.0193 47.875 67.7833 47.875C68.5473 47.875 69.1667 47.2557 69.1667 46.4917C69.021 42.6314 66.0863 39.4519 62.25 38.9982V38.8833C62.25 38.1193 61.6307 37.5 60.8667 37.5C60.1027 37.5 59.4833 38.1193 59.4833 38.8833V38.9982C55.647 39.4519 52.7123 42.6314 52.5667 46.4917C52.7123 50.352 55.647 53.5314 59.4833 53.9852V63.6118C57.1795 63.2147 55.4569 61.2763 55.3333 58.9417C55.3333 58.1777 54.714 57.5583 53.95 57.5583C53.186 57.5583 52.5667 58.1777 52.5667 58.9417C52.7123 62.802 55.647 65.9814 59.4833 66.4352V66.55C59.4833 67.314 60.1027 67.9333 60.8667 67.9333C61.6307 67.9333 62.25 67.314 62.25 66.55V66.4352C66.1589 66.1253 69.1729 62.8628 69.1729 58.9417C69.1729 55.0205 66.1589 51.7581 62.25 51.4482V41.8215C64.5539 42.2187 66.2764 44.1571 66.4 46.4917ZM55.3333 46.4917C55.4569 44.1571 57.1795 42.2187 59.4833 41.8215V51.1618C57.1795 50.7647 55.4569 48.8263 55.3333 46.4917ZM66.4 58.9417C66.2764 61.2763 64.5539 63.2147 62.25 63.6118V54.2715C64.5539 54.6687 66.2764 56.6071 66.4 58.9417Z" fill="#1D177B"/>
<path d="M32.5083 66.5498C34.2592 66.5508 36.0072 66.4121 37.736 66.1348C38.2333 66.0666 38.6546 65.7344 38.8369 65.2667C39.0192 64.799 38.9339 64.2693 38.6139 63.8825C38.294 63.4957 37.7896 63.3126 37.2961 63.4041C35.7127 63.6569 34.1118 63.7836 32.5083 63.7831C21.0168 63.7822 10.554 57.1611 5.63347 46.7763C0.712986 36.3915 2.21535 24.1012 9.49244 15.2074C9.97355 14.6169 9.88682 13.7486 9.29844 13.2649C8.71005 12.7813 7.84139 12.8642 7.35519 13.4505C-0.601441 23.171 -2.24564 36.6058 3.132 47.9582C8.50964 59.3106 19.9466 66.5488 32.5083 66.5498Z" fill="#1D177B"/>
<path d="M61.3633 26.8345C61.5158 27.4517 62.0694 27.8854 62.7051 27.8859C62.8174 27.8855 62.9293 27.872 63.0385 27.8457C63.7799 27.6619 64.2319 26.912 64.0483 26.1705C60.4384 11.6908 47.4313 1.53036 32.5083 1.53336C25.4709 1.51128 18.62 3.79493 13.0033 8.03503C12.3921 8.49342 12.2683 9.3605 12.7267 9.9717C13.1851 10.5829 14.0521 10.7068 14.6633 10.2484C24.3566 2.98242 37.4874 2.31932 47.8633 8.57176C54.5899 12.6471 59.4401 19.2085 61.3633 26.8345Z" fill="#1D177B"/>
<path d="M18.3887 48.1614C18.9289 48.7014 19.8045 48.7014 20.3447 48.1614L48.0114 20.4947C48.5356 19.952 48.5281 19.0892 47.9945 18.5556C47.4609 18.022 46.5981 18.0145 46.0553 18.5387L18.3887 46.2054C17.8486 46.7456 17.8486 47.6212 18.3887 48.1614Z" fill="#1D177B"/>
<path d="M24.9 31.9666C28.72 31.9666 31.8167 28.8699 31.8167 25.05C31.8167 21.23 28.72 18.1333 24.9 18.1333C21.08 18.1333 17.9833 21.23 17.9833 25.05C17.9879 28.868 21.0819 31.9621 24.9 31.9666ZM24.9 20.9C27.192 20.9 29.05 22.758 29.05 25.05C29.05 27.3419 27.192 29.2 24.9 29.2C22.608 29.2 20.75 27.3419 20.75 25.05C20.75 22.758 22.608 20.9 24.9 20.9Z" fill="#1D177B"/>
</svg>
