<svg width="83" height="83" viewBox="0 0 83 83" fill="none" xmlns="http://www.w3.org/2000/svg">
<g clip-path="url(#clip0)">
<path d="M69.8797 52.6073V22.8697C69.8797 21.9462 69.1241 21.3081 68.2006 21.3081H61.7023C60.7787 21.3081 59.9728 21.9462 59.9728 22.8697V49.7024C58.8981 49.736 57.8235 49.8703 56.7824 50.1222V31.6348C56.7824 30.7113 55.9932 30.0396 55.0697 30.0396H48.5714C47.6479 30.0396 46.8754 30.6945 46.8754 31.6348V56.7044C44.8773 59.5086 43.8026 62.8837 43.8194 66.3427C43.8194 75.5444 51.2748 82.9998 60.4597 82.9998C69.6614 82.9998 77.1168 75.5444 77.1168 66.3595C77.1168 60.8519 74.4134 55.7137 69.8797 52.6073ZM63.331 24.6664H66.5214V50.8274C65.4971 50.4244 64.4225 50.1222 63.331 49.9543V24.6664ZM50.2337 33.3979H53.4241V51.2808C52.2991 51.8013 51.2244 52.4394 50.2337 53.195V33.3979ZM71.9115 73.1096C69.5103 77.1564 65.1613 79.6247 60.4765 79.6247C53.1386 79.6247 47.1945 73.6638 47.1945 66.3427C47.1945 60.9694 50.4352 56.1167 55.4055 54.0682C55.607 54.0346 55.7917 53.9506 55.9596 53.8499C57.4037 53.3126 58.9485 53.0439 60.4933 53.0439C60.8459 53.0439 61.1817 53.0607 61.5344 53.0943H61.5511C63.5661 53.2454 65.5307 53.8667 67.2602 54.9077C73.5736 58.6522 75.6559 66.7961 71.9115 73.1096Z" fill="#1D177B"/>
<path d="M60.4933 64.9828C59.3179 64.9828 58.3775 64.0425 58.3775 62.8671C58.3775 61.6917 59.3011 60.7513 60.4765 60.7346C61.6519 60.7346 62.5922 61.6917 62.5922 62.8503C62.5922 63.7738 63.3478 64.5294 64.2713 64.5294C65.2116 64.5294 65.9673 63.7906 65.984 62.8503C65.984 60.6002 64.6071 58.5685 62.5082 57.7457V56.352C62.5082 55.4285 61.7526 54.6729 60.8291 54.6729C59.9056 54.6729 59.1499 55.4285 59.1499 56.352V57.561C56.2282 58.3166 54.4651 61.3055 55.2208 64.2272C55.8252 66.6451 57.9913 68.3243 60.4765 68.3243C61.6351 68.3243 62.5754 69.2814 62.5754 70.44C62.5754 71.5986 61.6183 72.5389 60.4597 72.5389C59.3011 72.5389 58.3607 71.5818 58.3607 70.4232C58.3607 69.4997 57.6051 68.7441 56.6816 68.7441C55.7581 68.7441 55.0193 69.4829 55.036 70.4064V70.4232C55.0528 72.9083 56.732 75.0912 59.1331 75.7125V76.4681C59.1331 77.3916 59.8888 78.1473 60.8123 78.1473C61.7358 78.1473 62.4914 77.3916 62.4914 76.4681V75.5446C65.3124 74.4363 66.6893 71.2628 65.5978 68.4586C64.7751 66.3597 62.7433 64.9828 60.4933 64.9828Z" fill="#1D177B"/>
<path d="M28.7407 43.4727H22.192C21.2685 43.4727 20.5129 44.2283 20.5129 45.1518V71.5143C20.5129 72.4379 21.2685 73.1935 22.192 73.1935H28.7407C29.6642 73.1935 30.4198 72.4379 30.4198 71.5143V45.1518C30.4198 44.2283 29.6642 43.4727 28.7407 43.4727ZM27.0615 70.0031H23.8712V46.8309H27.0615V70.0031Z" fill="#1D177B"/>
<path d="M42.0059 39.6108H35.4573C34.5338 39.6108 33.7781 40.3665 33.7781 41.29V71.6825C33.7781 72.606 34.5338 73.3616 35.4573 73.3616H42.0059C42.9295 73.3616 43.6851 72.606 43.6851 71.6825V41.29C43.6851 40.3665 42.9295 39.6108 42.0059 39.6108ZM40.3268 70.0033H37.1364V42.9691H40.3268V70.0033Z" fill="#1D177B"/>
<path d="M15.4755 57.9136H8.92682C8.00329 57.9136 7.24768 58.6692 7.24768 59.5927V71.5146C7.24768 72.4382 8.00329 73.1938 8.92682 73.1938H15.4755C16.399 73.1938 17.1546 72.4382 17.1546 71.5146V59.5927C17.1546 58.6692 16.399 57.9136 15.4755 57.9136ZM13.7963 70.0034H10.606V61.2719H13.7963V70.0034Z" fill="#1D177B"/>
<path d="M69.6278 0L58.1425 0.0167914C57.2189 0 56.4633 0.755614 56.4465 1.67914C56.4297 2.60267 57.1853 3.35828 58.1089 3.37508C58.1257 3.37508 58.1257 3.37508 58.1425 3.37508L65.5811 3.35828L47.3624 21.5098L40.9984 15.1962C40.6794 14.894 40.2428 14.7429 39.8062 14.7597C39.3697 14.7429 38.9331 14.894 38.614 15.1962L6.37451 47.4358C5.71965 48.0906 5.71965 49.1485 6.37451 49.7866C6.69355 50.1056 7.11333 50.2735 7.5667 50.2735C8.02007 50.2735 8.43985 50.1056 8.75889 49.7866L39.823 18.7224L46.187 25.1368C46.4892 25.4726 46.9258 25.6573 47.3792 25.6741C47.8325 25.6573 48.2523 25.4558 48.5714 25.1368L67.9486 5.74267L67.9319 13.2148C67.9319 14.1552 68.6707 14.9108 69.611 14.9444C70.5513 14.9276 71.2901 14.1552 71.2901 13.2148L71.3069 1.69593C71.3069 0.772406 70.5513 0 69.6278 0Z" fill="#1D177B"/>
</g>
<defs>
<clipPath id="clip0">
<rect width="83" height="83" fill="white"/>
</clipPath>
</defs>
</svg>
