<svg width="83" height="57" viewBox="0 0 83 57" fill="none" xmlns="http://www.w3.org/2000/svg">
<path d="M61.6113 0.490723C49.6168 0.490723 40.2208 5.4698 40.2208 11.8259V13.7683C37.6064 13.9235 35.117 14.5498 32.8364 15.5642C29.5458 14.4786 25.6308 13.8558 21.3899 13.8558C9.39556 13.8558 0 18.8346 0 25.1905V31.8094V38.5553V45.1745C0 51.5306 9.39556 56.5094 21.3901 56.5094C25.7019 56.5094 29.6777 55.8661 33.0023 54.7468C35.6087 55.8799 38.4825 56.5094 41.501 56.5094C44.5196 56.5094 47.3932 55.8799 49.9998 54.7468C53.3239 55.8661 57.2999 56.5094 61.6115 56.5094C73.6051 56.5094 83.0002 51.5306 83.0002 45.1745V38.5553V31.8094V25.1905V18.4448V11.8259C83 5.4698 73.6049 0.490723 61.6113 0.490723ZM47.9632 5.86005C51.5871 4.04833 56.4343 3.05038 61.6113 3.05038C66.7881 3.05038 71.6346 4.04833 75.258 5.86005C78.5517 7.50687 80.4404 9.68139 80.4404 11.8259C80.4404 13.9697 78.5517 16.144 75.258 17.7908C71.6341 19.603 66.7878 20.601 61.6113 20.601C60.0108 20.601 58.4419 20.5054 56.9306 20.3198C53.4267 16.6682 48.6428 14.2544 43.3083 13.8058C42.9616 13.1537 42.7804 12.4883 42.7804 11.8257C42.7804 9.68116 44.6696 7.50687 47.9632 5.86005ZM41.5008 53.9498C39.767 53.9498 38.0876 53.713 36.4924 53.2725C35.3187 52.9483 34.1912 52.513 33.1207 51.9787C31.6189 51.2292 30.2307 50.2852 28.9893 49.1793C28.2193 48.4937 27.5062 47.7458 26.8573 46.9441C25.8931 45.7522 25.071 44.4407 24.4174 43.036C24.0425 42.2299 23.723 41.3931 23.4637 40.5305C23.076 39.2407 22.8225 37.8932 22.7211 36.5041C22.6878 36.0466 22.6702 35.5849 22.6702 35.1189C22.6702 34.7242 22.6839 34.3326 22.7078 33.9437C23.1297 27.1257 27.1953 21.2782 32.9769 18.3306C34.0414 17.7881 35.1638 17.3436 36.3324 17.0094C37.5809 16.6527 38.8821 16.4229 40.221 16.3326C40.6443 16.3043 41.0708 16.2885 41.501 16.2885C41.6306 16.2885 41.7597 16.2908 41.8887 16.2933C42.1878 16.2994 42.4851 16.3129 42.7806 16.3329C44.0561 16.4189 45.297 16.6324 46.4911 16.9608C48.3014 17.459 50.0038 18.2209 51.5534 19.203C53.0918 20.1782 54.48 21.3696 55.6745 22.7353C56.819 24.0437 57.7855 25.5112 58.5365 27.1001C58.9354 27.9441 59.2733 28.8225 59.5447 29.7293C59.9482 31.0775 60.204 32.4885 60.2943 33.9442C60.3182 34.333 60.3322 34.7244 60.3322 35.1193C60.3322 35.5854 60.3145 36.0471 60.2808 36.5045C60.1794 37.8937 59.9261 39.2412 59.5382 40.531C59.2791 41.3938 58.9596 42.2306 58.5842 43.0365C57.9304 44.4412 57.1088 45.7526 56.1445 46.9446C55.4957 47.7462 54.7826 48.4942 54.0128 49.1798C52.7714 50.2856 51.3831 51.2296 49.8812 51.9792C48.8109 52.5134 47.683 52.9488 46.5094 53.273C44.9135 53.7132 43.2344 53.9498 41.5008 53.9498ZM7.74223 19.2249C11.3661 17.4132 16.2131 16.4154 21.3901 16.4154C24.2972 16.4154 27.1004 16.7301 29.6412 17.3266C24.2044 20.9626 20.5194 27.0208 20.1431 33.946C15.4386 33.7988 11.074 32.8216 7.74269 31.1559C4.44905 29.5088 2.55989 27.3346 2.55989 25.1907C2.55966 23.046 4.44882 20.8717 7.74223 19.2249ZM20.1565 36.5073C20.2468 37.9055 20.4712 39.2674 20.8182 40.5808C15.8573 40.5098 11.2329 39.52 7.74246 37.7751C4.44882 36.128 2.55966 33.9535 2.55966 31.8097V30.6501C5.96447 34.0007 12.458 36.2859 20.1565 36.5073ZM21.3901 43.1448C21.485 43.1448 21.5792 43.1434 21.6736 43.143C22.265 44.5989 23.012 45.975 23.8942 47.2513C23.0709 47.3039 22.235 47.3309 21.3901 47.3309C16.2136 47.3309 11.3666 46.3327 7.74246 44.5205C4.44882 42.8737 2.55966 40.6991 2.55966 38.5553V37.269C6.14494 40.7973 13.1548 43.1448 21.3901 43.1448ZM21.3901 53.9498C16.2136 53.9498 11.3666 52.9518 7.74246 51.1394C4.44882 49.4926 2.55966 47.3183 2.55966 45.1745V44.0149C6.14494 47.5434 13.1548 49.8907 21.3901 49.8907C22.9153 49.8907 24.3979 49.8098 25.8247 49.6561C27.0018 50.9247 28.3302 52.0504 29.7817 53.0044C27.2034 53.6228 24.3509 53.9498 21.3901 53.9498ZM80.4404 45.1745C80.4404 47.3185 78.5517 49.4926 75.258 51.1394C71.6341 52.9518 66.7878 53.9498 61.6113 53.9498C58.6507 53.9498 55.798 53.6228 53.2202 53.0044C54.6712 52.0501 55.9996 50.9247 57.1771 49.6561C58.604 49.8098 60.0866 49.8907 61.6113 49.8907C69.8461 49.8907 76.8555 47.5434 80.4404 44.0149V45.1745ZM80.4404 38.5553C80.4404 40.6994 78.5517 42.8737 75.258 44.5205C71.6341 46.3327 66.7878 47.3309 61.6113 47.3309C60.7666 47.3309 59.9308 47.3039 59.1075 47.2513C59.9896 45.975 60.7369 44.5989 61.328 43.143C61.4225 43.1434 61.5167 43.1448 61.6113 43.1448C69.8461 43.1448 76.8555 40.7975 80.4404 37.269V38.5553ZM80.4404 31.8094C80.4404 33.9537 78.5517 36.1278 75.258 37.7748C71.7681 39.52 67.1439 40.5098 62.1837 40.5805C62.5307 39.2674 62.7551 37.9053 62.8451 36.5071C70.5427 36.2857 77.036 34.0007 80.4404 30.6496V31.8094ZM80.4404 25.1905C80.4404 27.3346 78.5517 29.5086 75.258 31.1557C71.9271 32.8213 67.5623 33.7986 62.8588 33.9458C62.7811 32.5141 62.5628 31.1192 62.2155 29.7751C70.188 29.6635 76.9434 27.3459 80.4404 23.9042V25.1905ZM80.4404 18.4448C80.4404 20.5889 78.5517 22.7629 75.258 24.41C71.6341 26.2222 66.7878 27.2204 61.6113 27.2204C61.5336 27.2204 61.4562 27.2192 61.3785 27.2187C60.7955 25.7568 60.0557 24.3742 59.1796 23.0909C59.9766 23.1364 60.7875 23.1609 61.6113 23.1609C69.8461 23.1609 76.8555 20.8138 80.4404 17.2852V18.4448Z" fill="#1D177B"/>
<path d="M49.951 40.855C49.951 40.0064 49.7684 39.1924 49.4347 38.4384C48.4644 36.2476 46.2134 34.568 43.4402 34.0245C43.223 33.9819 43.0037 33.9445 42.7802 33.9161V31.809V30.6494V25.1901V25.0308C45.4147 25.4741 47.3911 27.2555 47.3911 29.381C47.3911 30.0878 47.9641 30.6608 48.6709 30.6608C49.3777 30.6608 49.9508 30.0878 49.9508 29.381C49.9508 28.8863 49.888 28.4035 49.7701 27.9372C49.0523 25.0985 46.2629 22.8853 42.7802 22.4444V20.7759C42.7802 20.0691 42.2074 19.4961 41.5006 19.4961C41.0861 19.4961 40.7189 19.694 40.485 19.9994C40.4666 20.0233 40.4487 20.0473 40.4317 20.0722C40.2987 20.2743 40.2205 20.5157 40.2205 20.7757V22.4441C39.9147 22.4827 39.6144 22.5362 39.3198 22.6018C35.714 23.4023 33.0504 26.1376 33.0504 29.3808C33.0504 30.2364 33.2365 31.0562 33.5758 31.8151C33.9293 32.6049 34.4505 33.3272 35.1017 33.954C35.9094 34.7315 36.918 35.3603 38.0609 35.785C38.7388 36.0369 39.4628 36.2183 40.2208 36.3143V37.2681V38.5544V44.014V44.9687V45.1736V45.2013C40.2208 45.2013 40.2203 45.2013 40.2201 45.2013C39.8545 45.1394 39.5012 45.0527 39.1647 44.9424C38.2139 44.6303 37.392 44.1349 36.779 43.5145C36.0452 42.7716 35.6103 41.8507 35.6103 40.8541C35.6103 40.6883 35.5775 40.5301 35.5201 40.3848C35.3326 39.9103 34.8712 39.5743 34.3302 39.5743C33.6235 39.5743 33.0506 40.1473 33.0506 40.8541C33.0506 41.0232 33.0602 41.1897 33.0746 41.3557C33.1827 42.617 33.6916 43.7873 34.4998 44.7775C35.0731 45.4799 35.7966 46.0904 36.6301 46.5802C37.456 47.0656 38.3893 47.4328 39.3965 47.6477C39.6663 47.7054 39.9417 47.7521 40.221 47.7877V49.4596C40.221 49.7838 40.3424 50.0787 40.541 50.3043C40.7757 50.5706 41.118 50.7395 41.501 50.7395C41.8839 50.7395 42.2264 50.5704 42.4609 50.3043C42.6595 50.0787 42.7806 49.7838 42.7806 49.4596V47.7877C43.0604 47.7523 43.3353 47.7056 43.6053 47.6477C44.6124 47.4328 45.5461 47.0656 46.372 46.5802C47.2055 46.0904 47.929 45.4801 48.5021 44.7778C49.3103 43.7875 49.8191 42.617 49.9273 41.356C49.9412 41.1911 49.951 41.0241 49.951 40.855ZM39.77 33.6396C38.94 33.4461 38.1876 33.1177 37.5581 32.6879C36.7836 32.1593 36.1952 31.4781 35.8766 30.7073C35.7033 30.2882 35.6103 29.8429 35.6103 29.3815C35.6103 27.2574 37.5844 25.4768 40.2168 25.0319C40.2182 25.0317 40.2196 25.0312 40.221 25.0312V25.1906V30.6499V31.8095V33.7289C40.0684 33.7033 39.918 33.6742 39.77 33.6396ZM47.3913 40.855C47.3913 41.8514 46.9562 42.7723 46.2227 43.5154C45.6094 44.1359 44.7877 44.6315 43.837 44.9434C43.5 45.0538 43.1469 45.1408 42.7813 45.2022C42.7811 45.2022 42.7809 45.2022 42.7804 45.2022V45.1745V44.9696V44.0149V38.5554V37.269V36.503C45.1919 36.9093 47.0502 38.4368 47.3481 40.3234C47.3755 40.4978 47.3913 40.675 47.3913 40.855Z" fill="#1D177B"/>
</svg>
